<svg  viewBox="0 0 176 26" fill="none" xmlns="http://www.w3.org/2000/svg">
<path d="M9.65618 25.9982C11.8828 26.0312 14.0475 25.303 15.7544 23.9469C15.9304 23.8218 16.077 23.6632 16.1849 23.4814C16.2927 23.2996 16.3594 23.0984 16.3807 22.8908C16.4062 22.6784 16.3855 22.4632 16.3198 22.2587C16.2542 22.0541 16.145 21.8645 15.999 21.7015C15.8601 21.5422 15.6893 21.4106 15.4964 21.3142C15.3035 21.2179 15.0923 21.1588 14.8752 21.1403C14.6581 21.1218 14.4392 21.1442 14.2313 21.2064C14.0234 21.2686 13.8305 21.3692 13.6638 21.5025C12.5312 22.3717 11.1132 22.8373 9.65618 22.8184C7.92126 22.8184 6.41362 22.2559 5.19397 21.0682C3.9379 19.9167 3.34629 18.4889 3.34629 16.8373C3.33039 16.0455 3.48618 15.2591 3.80402 14.5268C4.12185 13.7945 4.59495 13.1319 5.19397 12.5801C5.77314 12.016 6.46757 11.5698 7.23481 11.2689C8.00205 10.9679 8.82597 10.8185 9.65618 10.8298C11.0442 10.8306 12.3934 11.2645 13.4955 12.0645C14.5976 12.8645 15.3914 13.9862 15.7544 15.2565H9.65618C9.4319 15.2496 9.20846 15.2856 8.99913 15.3622C8.78981 15.4389 8.59887 15.5547 8.43766 15.7027C8.27646 15.8507 8.14828 16.0279 8.06074 16.2238C7.97321 16.4197 7.9281 16.6303 7.9281 16.8431C7.9281 17.0558 7.97321 17.2664 8.06074 17.4623C8.14828 17.6582 8.27646 17.8354 8.43766 17.9834C8.59887 18.1314 8.78981 18.2472 8.99913 18.3239C9.20846 18.4005 9.4319 18.4365 9.65618 18.4296H17.6698C18.1093 18.4173 18.5274 18.2463 18.8385 17.9516C19.1497 17.6569 19.3304 17.2607 19.3439 16.8439C19.3439 14.2991 18.3672 12.1507 16.4865 10.3676C14.6059 8.58442 12.3401 7.65665 9.65618 7.65665C6.97226 7.65665 4.70646 8.58278 2.82408 10.3676C1.9113 11.2065 1.18983 12.2142 0.7043 13.3281C0.218773 14.4421 -0.0204714 15.6387 0.00137165 16.8439C-0.0201944 18.0493 0.21917 19.246 0.704673 20.3602C1.19018 21.4744 1.9115 22.4824 2.82408 23.3218C3.70922 24.1873 4.77226 24.8714 5.94742 25.3318C7.12257 25.7921 8.38486 26.0189 9.65618 25.9982Z" fill="white"/>
<path d="M42.6404 8.74727C42.4593 8.5107 42.2214 8.31841 41.9464 8.18633C41.6934 8.08165 41.4209 8.02573 41.1449 8.02183C40.8405 8.03331 40.5433 8.11278 40.2774 8.25377C40.0137 8.38218 39.8043 8.59233 39.6841 8.84926L33.6899 21.2393L27.6195 8.84761C27.4894 8.59757 27.2833 8.39018 27.0279 8.25213C26.7838 8.11584 26.5091 8.03635 26.2263 8.02018C25.9721 8.01985 25.7213 8.0762 25.4942 8.18468C24.8297 8.51368 24.5174 8.94466 24.5174 9.54015C24.5058 9.74639 24.5538 9.95173 24.6562 10.134L32.047 24.9043C32.2534 25.3024 32.4634 25.5985 32.7409 25.7646C33.0322 25.9371 33.3733 26.0183 33.716 25.9965C34.4099 25.9965 34.9703 25.6314 35.319 24.9043L42.7063 10.134C42.8129 9.93942 42.8721 9.72472 42.8798 9.5056C42.8703 9.23747 42.7879 8.97622 42.6404 8.74727Z" fill="white"/>
<path d="M58.7491 25.9982C60.9758 26.0314 63.1406 25.3032 64.8473 23.9469C65.0237 23.822 65.1705 23.6635 65.2783 23.4817C65.3862 23.2998 65.4527 23.0985 65.4736 22.8908C65.4995 22.6783 65.479 22.4631 65.4133 22.2585C65.3477 22.0538 65.2383 21.8642 65.0919 21.7015C64.9578 21.5387 64.7889 21.4047 64.5964 21.308C64.4039 21.2114 64.192 21.1543 63.9747 21.1405C63.7568 21.1166 63.536 21.1364 63.3268 21.1988C63.1175 21.2612 62.9245 21.3646 62.7602 21.5024C61.6277 22.3719 60.2096 22.8375 58.7526 22.8184C57.009 22.8184 55.51 22.2558 54.2904 21.0681C53.036 19.9167 52.4444 18.4888 52.4444 16.8373C52.4391 16.0489 52.5985 15.2673 52.9132 14.5375C53.2279 13.8077 53.6918 13.1442 54.2782 12.5852C54.8645 12.0262 55.5618 11.5827 56.3297 11.2803C57.0976 10.9779 57.921 10.8225 58.7526 10.8232C60.1407 10.8234 61.4902 11.2571 62.5924 12.0572C63.6946 12.8573 64.4883 13.9793 64.8508 15.2499H58.7491C58.5248 15.243 58.3014 15.279 58.092 15.3556C57.8827 15.4323 57.6918 15.548 57.5306 15.696C57.3694 15.8441 57.2412 16.0213 57.1537 16.2172C57.0661 16.4131 57.021 16.6237 57.021 16.8364C57.021 17.0492 57.0661 17.2598 57.1537 17.4557C57.2412 17.6516 57.3694 17.8288 57.5306 17.9768C57.6918 18.1248 57.8827 18.2406 58.092 18.3172C58.3014 18.3939 58.5248 18.4299 58.7491 18.423H66.7661C67.2051 18.4098 67.6223 18.2385 67.9327 17.9438C68.2431 17.6492 68.4234 17.2535 68.4369 16.8373C68.4369 14.2925 67.4618 12.1441 65.5795 10.361C63.6971 8.5778 61.433 7.65003 58.7491 7.65003C56.0652 7.65003 53.8011 8.57616 51.917 10.361C51.0043 11.2011 50.2833 12.21 49.7986 13.3251C49.314 14.4403 49.076 15.6379 49.0995 16.8438C49.0779 18.0492 49.3173 19.246 49.8028 20.3602C50.2883 21.4744 51.0096 22.4823 51.9222 23.3218C52.8069 24.1864 53.8692 24.87 55.0433 25.3303C56.2175 25.7906 57.4787 26.0179 58.7491 25.9982Z" fill="white"/>
<path d="M93.1126 25.9982C93.3461 26.0013 93.5778 25.9591 93.7935 25.8742C94.0092 25.7894 94.2044 25.6636 94.367 25.5047C94.5301 25.3489 94.6577 25.1629 94.7416 24.9582C94.8254 24.7536 94.8639 24.5347 94.8545 24.3154V15.8207C94.8574 14.7134 94.6296 13.6165 94.1841 12.593C93.7386 11.5695 93.0841 10.6395 92.2584 9.85659C91.4326 9.07364 90.4518 8.45313 89.3724 8.0307C88.2929 7.60827 87.136 7.39226 85.9682 7.39509C84.7939 7.37633 83.628 7.58654 82.5429 8.01269C81.4577 8.43885 80.4765 9.07184 79.6601 9.87243C78.8184 10.6421 78.1521 11.5672 77.7021 12.5905C77.2521 13.6138 77.0281 14.7137 77.0438 15.8223V24.3137C77.0406 24.5351 77.085 24.7548 77.1745 24.9593C77.264 25.1639 77.3967 25.3489 77.5643 25.503C77.723 25.6544 77.9125 25.7735 78.1213 25.8533C78.33 25.933 78.5537 25.9717 78.7787 25.9669C79.0089 25.9752 79.2384 25.9384 79.4529 25.8587C79.6674 25.7789 79.8621 25.6581 80.025 25.5036C80.1879 25.3492 80.3154 25.1645 80.3995 24.9612C80.4836 24.7578 80.5224 24.5402 80.5137 24.3219V15.8207C80.5102 15.1486 80.6504 14.4829 80.9259 13.8637C81.2015 13.2445 81.6066 12.6847 82.1167 12.2182C82.6172 11.736 83.2139 11.353 83.872 11.0916C84.5301 10.8302 85.2365 10.6956 85.95 10.6956C86.6635 10.6956 87.3699 10.8302 88.028 11.0916C88.6861 11.353 89.2828 11.736 89.7833 12.2182C90.2877 12.6868 90.6863 13.2479 90.9547 13.8672C91.2232 14.4865 91.3558 15.1512 91.3447 15.8207V24.3384C91.3557 24.7722 91.5417 25.1855 91.8645 25.4931C92.1873 25.8006 92.6222 25.9791 93.0797 25.9916L93.1126 25.9982Z" fill="white"/>
<path d="M113.585 22.6934C112.617 22.6857 111.691 22.3176 111.007 21.6686C110.323 21.0197 109.935 20.1417 109.927 19.2242V11.4582H113.028C113.234 11.4616 113.44 11.4253 113.632 11.3515C113.823 11.2777 113.997 11.168 114.143 11.0289C114.289 10.8895 114.404 10.7241 114.482 10.5423C114.56 10.3604 114.598 10.1657 114.596 9.96949C114.598 9.77464 114.558 9.58144 114.48 9.40112C114.403 9.22081 114.288 9.05699 114.142 8.91921C113.997 8.78143 113.824 8.67243 113.634 8.59858C113.444 8.52472 113.24 8.48747 113.035 8.48901H109.927V3.82384C109.93 3.60811 109.885 3.39424 109.795 3.19594C109.706 2.99764 109.573 2.8193 109.407 2.67235C109.252 2.51447 109.064 2.38903 108.855 2.30405C108.645 2.21907 108.42 2.17643 108.192 2.17886C107.959 2.17537 107.727 2.21737 107.511 2.30225C107.296 2.38714 107.1 2.5131 106.938 2.67235C106.775 2.82058 106.648 2.99985 106.563 3.19834C106.479 3.39683 106.44 3.61002 106.449 3.82384V19.2242C106.449 21.0207 107.202 22.7437 108.541 24.0141C109.881 25.2845 111.698 25.9982 113.593 25.9982C113.819 26.0059 114.043 25.9687 114.252 25.8887C114.462 25.8088 114.651 25.6881 114.808 25.5343C114.975 25.38 115.108 25.195 115.197 24.9905C115.287 24.786 115.331 24.5664 115.328 24.345C115.315 23.9125 115.129 23.501 114.806 23.1951C114.483 22.8892 114.049 22.712 113.593 22.7L113.585 22.6934Z" fill="white"/>
<path d="M131.962 3.29588C132.188 3.30395 132.412 3.26713 132.621 3.18779C132.83 3.10845 133.02 2.98836 133.177 2.83528C133.344 2.68094 133.477 2.49589 133.566 2.29141C133.656 2.08694 133.7 1.86732 133.697 1.64596C133.699 1.43034 133.654 1.21668 133.564 1.01848C133.475 0.820288 133.343 0.641861 133.177 0.494475C133.022 0.336677 132.834 0.211287 132.625 0.126314C132.415 0.0413421 132.19 -0.00134458 131.962 0.000980953C131.022 -0.0145026 130.088 0.153456 129.218 0.494437C128.349 0.835418 127.563 1.34215 126.909 1.98318C126.237 2.60616 125.706 3.35227 125.348 4.17608C124.99 4.99988 124.813 5.88415 124.827 6.77501V24.3467C124.818 24.565 124.857 24.7826 124.941 24.9859C125.025 25.1893 125.153 25.3739 125.315 25.5284C125.478 25.6828 125.673 25.8037 125.888 25.8834C126.102 25.9631 126.331 26 126.562 25.9917C126.787 25.9996 127.012 25.9624 127.221 25.8825C127.43 25.8026 127.619 25.6817 127.776 25.5278C127.944 25.3739 128.076 25.1891 128.166 24.9849C128.255 24.7807 128.3 24.5613 128.297 24.3401V11.4254H131.78C131.986 11.4274 132.19 11.3904 132.38 11.3167C132.571 11.243 132.744 11.134 132.889 10.9962C133.034 10.8583 133.149 10.6943 133.227 10.5138C133.305 10.3333 133.344 10.1399 133.342 9.94489C133.344 9.74986 133.305 9.55636 133.228 9.37574C133.15 9.19512 133.035 9.03104 132.89 8.89312C132.744 8.75521 132.571 8.64624 132.381 8.57262C132.19 8.49899 131.986 8.46221 131.78 8.46441H128.304V6.76679C128.311 5.84879 128.699 4.97044 129.384 4.32114C130.068 3.67184 130.994 3.30362 131.962 3.29588Z" fill="white"/>
<path d="M141.864 0.650638C141.701 0.806492 141.573 0.992573 141.49 1.19722C141.406 1.40188 141.368 1.62069 141.378 1.83996V19.8854C141.35 20.9758 141.576 22.0586 142.039 23.0569C142.423 23.9359 143.063 24.6927 143.885 25.2382C144.685 25.7544 145.635 26.0201 146.602 25.9982H146.671C147.365 25.9982 147.925 25.8649 148.378 25.5343C148.583 25.4022 148.75 25.2248 148.865 25.0175C148.981 24.8103 149.041 24.5794 149.041 24.345C149.04 23.9108 148.88 23.4905 148.588 23.1556C148.449 23.0067 148.277 22.8882 148.085 22.8084C147.893 22.7285 147.684 22.6893 147.474 22.6934H146.607C146.083 22.6934 145.664 22.4291 145.351 21.9005C145.004 21.3708 144.863 20.7095 144.863 19.8854V1.84161C144.867 1.3999 144.692 0.973707 144.374 0.650638C144.033 0.351262 143.585 0.186024 143.12 0.188399C142.888 0.181192 142.658 0.218425 142.442 0.29786C142.226 0.377295 142.029 0.497292 141.864 0.650638Z" fill="white"/>
<path d="M166.38 7.75533C164.477 7.75533 162.617 8.29029 161.035 9.29256C159.453 10.2948 158.22 11.7194 157.492 13.3861C156.764 15.0529 156.573 16.8869 156.945 18.6563C157.316 20.4256 158.232 22.0509 159.577 23.3266C160.923 24.6022 162.637 25.471 164.503 25.8229C166.369 26.1749 168.303 25.9942 170.061 25.3038C171.819 24.6135 173.322 23.4443 174.379 21.9443C175.436 20.4443 176 18.6808 176 16.8768C176 14.4577 174.986 12.1379 173.182 10.4274C171.378 8.71691 168.931 7.75576 166.38 7.75533ZM166.38 22.6539C165.175 22.6539 163.997 22.3151 162.995 21.6803C161.993 21.0455 161.212 20.1432 160.751 19.0876C160.289 18.0319 160.169 16.8703 160.404 15.7497C160.639 14.629 161.219 13.5996 162.071 12.7917C162.924 11.9837 164.009 11.4335 165.191 11.2106C166.373 10.9877 167.598 11.1021 168.712 11.5393C169.825 11.9766 170.777 12.7171 171.446 13.6671C172.116 14.6172 172.473 15.7341 172.473 16.8768C172.473 17.6354 172.315 18.3867 172.009 19.0876C171.703 19.7885 171.254 20.4254 170.688 20.9618C170.123 21.4983 169.451 21.9238 168.712 22.2142C167.972 22.5045 167.18 22.6539 166.38 22.6539Z" fill="white"/>
<path d="M165.427 10.3182C163.869 10.3179 162.346 10.7557 161.05 11.5763C159.754 12.3969 158.744 13.5634 158.148 14.9283C157.551 16.2932 157.395 17.7952 157.699 19.2444C158.002 20.6935 158.753 22.0246 159.854 23.0695C160.956 24.1143 162.36 24.8259 163.888 25.1143C165.416 25.4026 167 25.2548 168.44 24.6895C169.88 24.1241 171.11 23.1667 171.976 21.9383C172.842 20.7098 173.304 19.2655 173.304 17.7881C173.304 15.8072 172.474 13.9075 170.997 12.5067C169.52 11.1058 167.517 10.3186 165.427 10.3182ZM166.387 22.6556C165.182 22.6556 164.004 22.3167 163.002 21.6819C162 21.0471 161.219 20.1449 160.758 19.0892C160.296 18.0336 160.176 16.872 160.411 15.7513C160.646 14.6307 161.226 13.6013 162.078 12.7933C162.93 11.9854 164.016 11.4351 165.198 11.2122C166.38 10.9893 167.605 11.1037 168.718 11.541C169.832 11.9782 170.783 12.7187 171.453 13.6688C172.122 14.6188 172.48 15.7358 172.48 16.8784C172.48 17.6375 172.322 18.3891 172.015 19.0902C171.708 19.7914 171.259 20.4284 170.692 20.9647C170.126 21.5011 169.453 21.9264 168.713 22.2162C167.973 22.506 167.18 22.6548 166.38 22.6539L166.387 22.6556Z" fill="white"/>
</svg>
