<svg width="140" height="22" viewBox="0 0 140 22" fill="none" xmlns="http://www.w3.org/2000/svg">
<path d="M11.9761 15.791C11.9761 15.4355 11.9214 15.1165 11.812 14.834C11.7118 14.5423 11.5203 14.278 11.2378 14.041C10.9552 13.7949 10.5588 13.5534 10.0483 13.3164C9.53792 13.0794 8.87712 12.8333 8.06592 12.5781C7.16357 12.2865 6.3068 11.9583 5.49561 11.5938C4.69352 11.2292 3.98258 10.8053 3.36279 10.3223C2.75212 9.83008 2.26904 9.26042 1.91357 8.61328C1.56722 7.96615 1.39404 7.21419 1.39404 6.35742C1.39404 5.52799 1.57633 4.77604 1.94092 4.10156C2.3055 3.41797 2.81592 2.83464 3.47217 2.35156C4.12842 1.85938 4.90316 1.48112 5.79639 1.2168C6.69873 0.952474 7.68766 0.820312 8.76318 0.820312C10.2306 0.820312 11.5112 1.08464 12.605 1.61328C13.6987 2.14193 14.5464 2.86654 15.1479 3.78711C15.7586 4.70768 16.064 5.76042 16.064 6.94531H11.9897C11.9897 6.36198 11.8667 5.85156 11.6206 5.41406C11.3836 4.96745 11.019 4.61654 10.5269 4.36133C10.0438 4.10612 9.43311 3.97852 8.69482 3.97852C7.98389 3.97852 7.39144 4.08789 6.91748 4.30664C6.44352 4.51628 6.08805 4.80339 5.85107 5.16797C5.6141 5.52344 5.49561 5.92448 5.49561 6.37109C5.49561 6.70833 5.57764 7.01367 5.7417 7.28711C5.91488 7.56055 6.17008 7.81576 6.50732 8.05273C6.84456 8.28971 7.25928 8.51302 7.75146 8.72266C8.24365 8.93229 8.81331 9.13737 9.46045 9.33789C10.5451 9.66602 11.4976 10.0352 12.3179 10.4453C13.1473 10.8555 13.84 11.3158 14.396 11.8262C14.952 12.3366 15.3713 12.9154 15.6538 13.5625C15.9364 14.2096 16.0776 14.9434 16.0776 15.7637C16.0776 16.6296 15.909 17.4043 15.5718 18.0879C15.2345 18.7715 14.7469 19.3503 14.1089 19.8242C13.4709 20.2982 12.7098 20.6582 11.8257 20.9043C10.9416 21.1504 9.95264 21.2734 8.85889 21.2734C7.87451 21.2734 6.90381 21.1458 5.94678 20.8906C4.98975 20.6263 4.1193 20.2298 3.33545 19.7012C2.56071 19.1725 1.94092 18.498 1.47607 17.6777C1.01123 16.8574 0.778809 15.8867 0.778809 14.7656H4.89404C4.89404 15.3854 4.98975 15.9095 5.18115 16.3379C5.37256 16.7663 5.64144 17.1126 5.98779 17.377C6.34326 17.6413 6.76253 17.8327 7.24561 17.9512C7.73779 18.0697 8.27555 18.1289 8.85889 18.1289C9.56982 18.1289 10.1532 18.0286 10.6089 17.8281C11.0737 17.6276 11.4155 17.3496 11.6343 16.9941C11.8621 16.6387 11.9761 16.2376 11.9761 15.791ZM24.8667 6.20703V8.99609H16.2534V6.20703H24.8667ZM18.3862 2.55664H22.3237V16.543C22.3237 16.9714 22.3784 17.2995 22.4878 17.5273C22.6063 17.7552 22.7795 17.9147 23.0073 18.0059C23.2352 18.0879 23.5223 18.1289 23.8687 18.1289C24.1147 18.1289 24.3335 18.1198 24.5249 18.1016C24.7254 18.0742 24.894 18.0469 25.0308 18.0195L25.0444 20.918C24.7072 21.0273 24.3426 21.1139 23.9507 21.1777C23.5588 21.2415 23.1258 21.2734 22.6519 21.2734C21.786 21.2734 21.0295 21.1322 20.3823 20.8496C19.7443 20.5579 19.2521 20.0931 18.9058 19.4551C18.5594 18.8171 18.3862 17.9785 18.3862 16.9395V2.55664ZM32.9175 21.2734C31.769 21.2734 30.7391 21.0911 29.8276 20.7266C28.9162 20.3529 28.1414 19.8379 27.5034 19.1816C26.8745 18.5254 26.3914 17.7643 26.0542 16.8984C25.717 16.0234 25.5483 15.0938 25.5483 14.1094V13.5625C25.5483 12.4414 25.7078 11.416 26.0269 10.4863C26.3459 9.55664 26.8016 8.75 27.394 8.06641C27.9956 7.38281 28.7248 6.85872 29.5815 6.49414C30.4383 6.12044 31.4045 5.93359 32.48 5.93359C33.5282 5.93359 34.4578 6.10677 35.269 6.45312C36.0802 6.79948 36.7593 7.29167 37.3062 7.92969C37.8621 8.56771 38.2814 9.33333 38.564 10.2266C38.8465 11.1107 38.9878 12.0951 38.9878 13.1797V14.8203H27.23V12.1953H35.1187V11.8945C35.1187 11.3477 35.0184 10.86 34.8179 10.4316C34.6265 9.99414 34.3348 9.64779 33.9429 9.39258C33.5509 9.13737 33.0496 9.00977 32.439 9.00977C31.9194 9.00977 31.4728 9.1237 31.0991 9.35156C30.7254 9.57943 30.4201 9.89844 30.1831 10.3086C29.9552 10.7188 29.7821 11.2018 29.6636 11.7578C29.5542 12.3047 29.4995 12.9062 29.4995 13.5625V14.1094C29.4995 14.7018 29.5815 15.2487 29.7456 15.75C29.9188 16.2513 30.1603 16.6842 30.4702 17.0488C30.7892 17.4134 31.172 17.696 31.6187 17.8965C32.0744 18.097 32.5894 18.1973 33.1636 18.1973C33.8745 18.1973 34.5353 18.0605 35.146 17.7871C35.7658 17.5046 36.299 17.0807 36.7456 16.5156L38.6597 18.5938C38.3498 19.0404 37.9259 19.4688 37.3882 19.8789C36.8595 20.2891 36.2215 20.6263 35.4741 20.8906C34.7267 21.1458 33.8745 21.2734 32.9175 21.2734ZM44.1675 9.43359V21H40.23V6.20703H43.9351L44.1675 9.43359ZM48.6245 6.11133L48.5562 9.76172C48.3647 9.73438 48.1323 9.71159 47.8589 9.69336C47.5946 9.66602 47.353 9.65234 47.1343 9.65234C46.5783 9.65234 46.0952 9.72526 45.6851 9.87109C45.284 10.0078 44.9468 10.2129 44.6733 10.4863C44.409 10.7598 44.2085 11.0924 44.0718 11.4844C43.9442 11.8763 43.8713 12.3229 43.853 12.8242L43.0601 12.5781C43.0601 11.6211 43.1558 10.7415 43.3472 9.93945C43.5386 9.12826 43.8166 8.42188 44.1812 7.82031C44.5549 7.21875 45.0106 6.75391 45.5483 6.42578C46.0861 6.09766 46.7013 5.93359 47.394 5.93359C47.6128 5.93359 47.8361 5.95182 48.064 5.98828C48.2918 6.01562 48.4787 6.05664 48.6245 6.11133ZM56.019 21.2734C54.8706 21.2734 53.8407 21.0911 52.9292 20.7266C52.0177 20.3529 51.243 19.8379 50.605 19.1816C49.9761 18.5254 49.493 17.7643 49.1558 16.8984C48.8185 16.0234 48.6499 15.0938 48.6499 14.1094V13.5625C48.6499 12.4414 48.8094 11.416 49.1284 10.4863C49.4474 9.55664 49.9032 8.75 50.4956 8.06641C51.0972 7.38281 51.8263 6.85872 52.6831 6.49414C53.5399 6.12044 54.506 5.93359 55.5815 5.93359C56.6297 5.93359 57.5594 6.10677 58.3706 6.45312C59.1818 6.79948 59.8608 7.29167 60.4077 7.92969C60.9637 8.56771 61.383 9.33333 61.6655 10.2266C61.9481 11.1107 62.0894 12.0951 62.0894 13.1797V14.8203H50.3315V12.1953H58.2202V11.8945C58.2202 11.3477 58.12 10.86 57.9194 10.4316C57.728 9.99414 57.4364 9.64779 57.0444 9.39258C56.6525 9.13737 56.1512 9.00977 55.5405 9.00977C55.021 9.00977 54.5744 9.1237 54.2007 9.35156C53.827 9.57943 53.5216 9.89844 53.2847 10.3086C53.0568 10.7188 52.8836 11.2018 52.7651 11.7578C52.6558 12.3047 52.6011 12.9062 52.6011 13.5625V14.1094C52.6011 14.7018 52.6831 15.2487 52.8472 15.75C53.0203 16.2513 53.2619 16.6842 53.5718 17.0488C53.8908 17.4134 54.2736 17.696 54.7202 17.8965C55.1759 18.097 55.6909 18.1973 56.2651 18.1973C56.9761 18.1973 57.6369 18.0605 58.2476 17.7871C58.8674 17.5046 59.4006 17.0807 59.8472 16.5156L61.7612 18.5938C61.4513 19.0404 61.0275 19.4688 60.4897 19.8789C59.9611 20.2891 59.3231 20.6263 58.5757 20.8906C57.8283 21.1458 56.9761 21.2734 56.019 21.2734ZM62.7026 13.7539V13.4668C62.7026 12.3822 62.8576 11.3841 63.1675 10.4727C63.4774 9.55208 63.9285 8.75456 64.521 8.08008C65.1134 7.4056 65.8426 6.88151 66.7085 6.50781C67.5744 6.125 68.5679 5.93359 69.689 5.93359C70.8101 5.93359 71.8081 6.125 72.6831 6.50781C73.5581 6.88151 74.2918 7.4056 74.8843 8.08008C75.4858 8.75456 75.9416 9.55208 76.2515 10.4727C76.5614 11.3841 76.7163 12.3822 76.7163 13.4668V13.7539C76.7163 14.8294 76.5614 15.8275 76.2515 16.748C75.9416 17.6595 75.4858 18.457 74.8843 19.1406C74.2918 19.8151 73.5627 20.3392 72.6968 20.7129C71.8309 21.0866 70.8374 21.2734 69.7163 21.2734C68.5952 21.2734 67.5972 21.0866 66.7222 20.7129C65.8563 20.3392 65.1226 19.8151 64.521 19.1406C63.9285 18.457 63.4774 17.6595 63.1675 16.748C62.8576 15.8275 62.7026 14.8294 62.7026 13.7539ZM66.6401 13.4668V13.7539C66.6401 14.3737 66.6948 14.9525 66.8042 15.4902C66.9136 16.028 67.0868 16.502 67.3237 16.9121C67.5698 17.3132 67.8888 17.6276 68.2808 17.8555C68.6727 18.0833 69.1512 18.1973 69.7163 18.1973C70.2632 18.1973 70.7326 18.0833 71.1245 17.8555C71.5164 17.6276 71.8309 17.3132 72.0679 16.9121C72.3049 16.502 72.478 16.028 72.5874 15.4902C72.7059 14.9525 72.7651 14.3737 72.7651 13.7539V13.4668C72.7651 12.8652 72.7059 12.3001 72.5874 11.7715C72.478 11.2337 72.3003 10.7598 72.0542 10.3496C71.8172 9.93034 71.5028 9.60221 71.1108 9.36523C70.7189 9.12826 70.245 9.00977 69.689 9.00977C69.133 9.00977 68.659 9.12826 68.2671 9.36523C67.8843 9.60221 67.5698 9.93034 67.3237 10.3496C67.0868 10.7598 66.9136 11.2337 66.8042 11.7715C66.6948 12.3001 66.6401 12.8652 66.6401 13.4668ZM86.1343 16.9121C86.1343 16.6296 86.0522 16.3743 85.8882 16.1465C85.7241 15.9186 85.4188 15.709 84.9722 15.5176C84.5347 15.3171 83.9012 15.1348 83.0718 14.9707C82.3244 14.8066 81.6271 14.6016 80.98 14.3555C80.342 14.1003 79.786 13.7949 79.312 13.4395C78.8472 13.084 78.4826 12.6647 78.2183 12.1816C77.9539 11.6895 77.8218 11.1289 77.8218 10.5C77.8218 9.88021 77.9539 9.29688 78.2183 8.75C78.4917 8.20312 78.8791 7.72005 79.3804 7.30078C79.8908 6.8724 80.5106 6.53971 81.2397 6.30273C81.978 6.05664 82.8075 5.93359 83.728 5.93359C85.0132 5.93359 86.116 6.13867 87.0366 6.54883C87.9663 6.95898 88.6772 7.52409 89.1694 8.24414C89.6707 8.95508 89.9214 9.76628 89.9214 10.6777H85.9839C85.9839 10.2949 85.9019 9.95312 85.7378 9.65234C85.5828 9.34245 85.3368 9.10091 84.9995 8.92773C84.6714 8.74544 84.243 8.6543 83.7144 8.6543C83.2769 8.6543 82.8986 8.73177 82.5796 8.88672C82.2606 9.03255 82.0145 9.23307 81.8413 9.48828C81.6772 9.73438 81.5952 10.0078 81.5952 10.3086C81.5952 10.5365 81.6408 10.7415 81.7319 10.9238C81.8322 11.097 81.9917 11.2565 82.2104 11.4023C82.4292 11.5482 82.7118 11.6849 83.0581 11.8125C83.4136 11.931 83.8511 12.0404 84.3706 12.1406C85.437 12.3594 86.3895 12.6465 87.228 13.002C88.0666 13.3483 88.7319 13.8223 89.2241 14.4238C89.7163 15.0163 89.9624 15.7956 89.9624 16.7617C89.9624 17.418 89.8166 18.0195 89.5249 18.5664C89.2332 19.1133 88.814 19.5918 88.2671 20.002C87.7202 20.403 87.064 20.7174 86.2983 20.9453C85.5418 21.1641 84.6896 21.2734 83.7417 21.2734C82.3654 21.2734 81.1987 21.0273 80.2417 20.5352C79.2938 20.043 78.5737 19.4186 78.0815 18.6621C77.5985 17.8965 77.3569 17.1126 77.3569 16.3105H81.0894C81.1076 16.8483 81.2443 17.2812 81.4995 17.6094C81.7638 17.9375 82.0965 18.1745 82.4976 18.3203C82.9077 18.4661 83.3498 18.5391 83.8237 18.5391C84.3341 18.5391 84.758 18.4707 85.0952 18.334C85.4325 18.1882 85.6877 17.9967 85.8608 17.7598C86.0431 17.5137 86.1343 17.2311 86.1343 16.9121ZM90.8901 13.7539V13.4668C90.8901 12.3822 91.0451 11.3841 91.355 10.4727C91.6649 9.55208 92.116 8.75456 92.7085 8.08008C93.3009 7.4056 94.0301 6.88151 94.896 6.50781C95.7619 6.125 96.7554 5.93359 97.8765 5.93359C98.9976 5.93359 99.9956 6.125 100.871 6.50781C101.746 6.88151 102.479 7.4056 103.072 8.08008C103.673 8.75456 104.129 9.55208 104.439 10.4727C104.749 11.3841 104.904 12.3822 104.904 13.4668V13.7539C104.904 14.8294 104.749 15.8275 104.439 16.748C104.129 17.6595 103.673 18.457 103.072 19.1406C102.479 19.8151 101.75 20.3392 100.884 20.7129C100.018 21.0866 99.0249 21.2734 97.9038 21.2734C96.7827 21.2734 95.7847 21.0866 94.9097 20.7129C94.0438 20.3392 93.3101 19.8151 92.7085 19.1406C92.116 18.457 91.6649 17.6595 91.355 16.748C91.0451 15.8275 90.8901 14.8294 90.8901 13.7539ZM94.8276 13.4668V13.7539C94.8276 14.3737 94.8823 14.9525 94.9917 15.4902C95.1011 16.028 95.2743 16.502 95.5112 16.9121C95.7573 17.3132 96.0763 17.6276 96.4683 17.8555C96.8602 18.0833 97.3387 18.1973 97.9038 18.1973C98.4507 18.1973 98.9201 18.0833 99.312 17.8555C99.7039 17.6276 100.018 17.3132 100.255 16.9121C100.492 16.502 100.666 16.028 100.775 15.4902C100.893 14.9525 100.953 14.3737 100.953 13.7539V13.4668C100.953 12.8652 100.893 12.3001 100.775 11.7715C100.666 11.2337 100.488 10.7598 100.242 10.3496C100.005 9.93034 99.6903 9.60221 99.2983 9.36523C98.9064 9.12826 98.4325 9.00977 97.8765 9.00977C97.3205 9.00977 96.8465 9.12826 96.4546 9.36523C96.0718 9.60221 95.7573 9.93034 95.5112 10.3496C95.2743 10.7598 95.1011 11.2337 94.9917 11.7715C94.8823 12.3001 94.8276 12.8652 94.8276 13.4668ZM110.179 9.36523V21H106.242V6.20703H109.933L110.179 9.36523ZM109.605 13.084H108.539C108.539 11.9902 108.68 11.0059 108.962 10.1309C109.245 9.24674 109.641 8.49479 110.152 7.875C110.662 7.24609 111.268 6.76758 111.97 6.43945C112.681 6.10221 113.474 5.93359 114.349 5.93359C115.042 5.93359 115.675 6.03385 116.25 6.23438C116.824 6.4349 117.316 6.75391 117.726 7.19141C118.145 7.62891 118.464 8.20768 118.683 8.92773C118.911 9.64779 119.025 10.5273 119.025 11.5664V21H115.06V11.5527C115.06 10.8965 114.969 10.3861 114.787 10.0215C114.604 9.6569 114.335 9.40169 113.98 9.25586C113.634 9.10091 113.205 9.02344 112.695 9.02344C112.166 9.02344 111.706 9.12826 111.314 9.33789C110.931 9.54753 110.612 9.83919 110.357 10.2129C110.111 10.5775 109.924 11.0059 109.796 11.498C109.669 11.9902 109.605 12.5189 109.605 13.084ZM125.175 6.20703V21H121.224V6.20703H125.175ZM120.978 2.35156C120.978 1.77734 121.179 1.30339 121.58 0.929688C121.981 0.55599 122.518 0.369141 123.193 0.369141C123.858 0.369141 124.391 0.55599 124.792 0.929688C125.203 1.30339 125.408 1.77734 125.408 2.35156C125.408 2.92578 125.203 3.39974 124.792 3.77344C124.391 4.14714 123.858 4.33398 123.193 4.33398C122.518 4.33398 121.981 4.14714 121.58 3.77344C121.179 3.39974 120.978 2.92578 120.978 2.35156ZM133.541 18.1973C134.024 18.1973 134.452 18.1061 134.826 17.9238C135.199 17.7324 135.491 17.4681 135.701 17.1309C135.919 16.7845 136.033 16.3789 136.042 15.9141H139.748C139.738 16.9531 139.46 17.8783 138.914 18.6895C138.367 19.4915 137.633 20.125 136.712 20.5898C135.792 21.0456 134.762 21.2734 133.623 21.2734C132.474 21.2734 131.472 21.082 130.615 20.6992C129.767 20.3164 129.061 19.7878 128.496 19.1133C127.931 18.4297 127.507 17.6367 127.224 16.7344C126.942 15.8229 126.8 14.8477 126.8 13.8086V13.4121C126.8 12.3639 126.942 11.3887 127.224 10.4863C127.507 9.57487 127.931 8.7819 128.496 8.10742C129.061 7.42383 129.767 6.89062 130.615 6.50781C131.462 6.125 132.456 5.93359 133.595 5.93359C134.807 5.93359 135.869 6.16602 136.781 6.63086C137.701 7.0957 138.421 7.76107 138.941 8.62695C139.47 9.48372 139.738 10.5 139.748 11.6758H136.042C136.033 11.1836 135.929 10.737 135.728 10.3359C135.537 9.9349 135.254 9.61589 134.88 9.37891C134.516 9.13281 134.065 9.00977 133.527 9.00977C132.953 9.00977 132.483 9.13281 132.119 9.37891C131.754 9.61589 131.472 9.94401 131.271 10.3633C131.07 10.7734 130.929 11.2428 130.847 11.7715C130.774 12.291 130.738 12.8379 130.738 13.4121V13.8086C130.738 14.3828 130.774 14.9342 130.847 15.4629C130.92 15.9915 131.057 16.4609 131.257 16.8711C131.467 17.2812 131.754 17.6048 132.119 17.8418C132.483 18.0788 132.957 18.1973 133.541 18.1973Z" fill="#D5D5D5" fill-opacity="0.5"/>
</svg>
