<svg width="48" height="48" viewBox="0 0 48 48" fill="none" xmlns="http://www.w3.org/2000/svg">
<path d="M24 42.2902C27.9556 42.2902 31.8224 41.142 35.1114 38.9909C38.4004 36.8398 40.9638 33.7823 42.4776 30.2051C43.9913 26.628 44.3874 22.6917 43.6157 18.8942C42.844 15.0967 40.9392 11.6085 38.1421 8.87062C35.3451 6.13276 31.7814 4.26826 27.9018 3.51289C24.0222 2.75752 20.0009 3.1452 16.3463 4.62692C12.6918 6.10863 9.56824 8.61783 7.37061 11.8372C5.17298 15.0566 4 18.8415 4 22.7135C4.0153 27.9009 6.12735 32.8716 9.87477 36.5397C13.6222 40.2079 18.7004 42.2752 24 42.2902V42.2902Z" stroke="#9A098B" stroke-width="3" stroke-linecap="round" stroke-linejoin="round"/>
<path d="M16 23.7139H32" stroke="#9A098B" stroke-width="3" stroke-linecap="round" stroke-linejoin="round"/>
<path d="M24 31.5442V15.8828" stroke="#9A098B" stroke-width="3" stroke-linecap="round" stroke-linejoin="round"/>
</svg>
