<svg width="48" height="48" viewBox="0 0 48 48" fill="none" xmlns="http://www.w3.org/2000/svg">
<path d="M24 43.7023C27.9556 43.7023 31.8224 42.5541 35.1114 40.403C38.4004 38.2519 40.9638 35.1944 42.4776 31.6173C43.9913 28.0401 44.3874 24.1038 43.6157 20.3063C42.844 16.5088 40.9392 13.0206 38.1421 10.2827C35.3451 7.54487 31.7814 5.68037 27.9018 4.925C24.0222 4.16963 20.0009 4.55731 16.3463 6.03903C12.6918 7.52074 9.56824 10.0299 7.37061 13.2493C5.17298 16.4687 4 20.2537 4 24.1256C4.0153 29.313 6.12735 34.2837 9.87477 37.9519C13.6222 41.62 18.7004 43.6873 24 43.7023V43.7023Z" stroke="#9A098B" stroke-width="3" stroke-linecap="round" stroke-linejoin="round"/>
<path d="M16 24.126H32" stroke="#9A098B" stroke-width="3" stroke-linecap="round" stroke-linejoin="round"/>
</svg>
