<svg width="54" height="41" viewBox="0 0 54 41" fill="none" xmlns="http://www.w3.org/2000/svg">
<path d="M18.3488 40.6207C14.7274 40.6207 11.6288 39.7807 9.05275 38.1007C6.47675 36.3834 4.47942 34.0127 3.06075 30.9887C1.67942 27.9274 0.98875 24.3807 0.98875 20.3487C0.98875 16.3541 1.67942 12.8261 3.06075 9.76473C4.47942 6.70339 6.47675 4.33273 9.05275 2.65273C11.6288 0.935397 14.7274 0.0767298 18.3488 0.0767298C21.9701 0.0767298 25.0688 0.935397 27.6448 2.65273C30.2208 4.33273 32.1994 6.70339 33.5808 9.76473C34.9994 12.8261 35.7088 16.3541 35.7088 20.3487C35.7088 24.3807 34.9994 27.9274 33.5808 30.9887C32.1994 34.0127 30.2208 36.3834 27.6448 38.1007C25.0688 39.7807 21.9701 40.6207 18.3488 40.6207ZM18.3488 34.1807C21.2981 34.1807 23.7061 32.9487 25.5728 30.4847C27.4394 28.0207 28.3728 24.6421 28.3728 20.3487C28.3728 16.0554 27.4394 12.6767 25.5728 10.2127C23.7061 7.74873 21.2981 6.51673 18.3488 6.51673C15.3621 6.51673 12.9354 7.74873 11.0688 10.2127C9.23942 12.6767 8.32475 16.0554 8.32475 20.3487C8.32475 24.6421 9.23942 28.0207 11.0688 30.4847C12.9354 32.9487 15.3621 34.1807 18.3488 34.1807ZM46.2906 39.9487V8.92473L39.8506 10.4367V4.94873L49.3146 0.748728H53.7386V39.9487H46.2906Z" fill="url(#paint0_linear_557_1334)"/>
<defs>
<linearGradient id="paint0_linear_557_1334" x1="6.80795" y1="44.8661" x2="56.524" y2="3.06942" gradientUnits="userSpaceOnUse">
<stop stop-color="#EA347F"/>
<stop offset="0.19" stop-color="#E23080"/>
<stop offset="0.5" stop-color="#CC2484"/>
<stop offset="0.87" stop-color="#A81189"/>
<stop offset="1" stop-color="#9A098B"/>
</linearGradient>
</defs>
</svg>
