<svg width="68" height="41" viewBox="0 0 68 41" fill="none" xmlns="http://www.w3.org/2000/svg">
<path d="M18.1417 40.6207C14.5204 40.6207 11.4217 39.7807 8.84572 38.1007C6.26972 36.3834 4.27239 34.0127 2.85372 30.9887C1.47239 27.9274 0.781719 24.3807 0.781719 20.3487C0.781719 16.3541 1.47239 12.8261 2.85372 9.76473C4.27239 6.70339 6.26972 4.33273 8.84572 2.65273C11.4217 0.935397 14.5204 0.0767298 18.1417 0.0767298C21.7631 0.0767298 24.8617 0.935397 27.4377 2.65273C30.0137 4.33273 31.9924 6.70339 33.3737 9.76473C34.7924 12.8261 35.5017 16.3541 35.5017 20.3487C35.5017 24.3807 34.7924 27.9274 33.3737 30.9887C31.9924 34.0127 30.0137 36.3834 27.4377 38.1007C24.8617 39.7807 21.7631 40.6207 18.1417 40.6207ZM18.1417 34.1807C21.0911 34.1807 23.4991 32.9487 25.3657 30.4847C27.2324 28.0207 28.1657 24.6421 28.1657 20.3487C28.1657 16.0554 27.2324 12.6767 25.3657 10.2127C23.4991 7.74873 21.0911 6.51673 18.1417 6.51673C15.1551 6.51673 12.7284 7.74873 10.8617 10.2127C9.03239 12.6767 8.11772 16.0554 8.11772 20.3487C8.11772 24.6421 9.03239 28.0207 10.8617 30.4847C12.7284 32.9487 15.1551 34.1807 18.1417 34.1807ZM40.6021 39.9487V34.7407C42.9914 32.7621 45.3061 30.8021 47.5461 28.8607C49.8234 26.9194 51.8394 24.9967 53.5941 23.0927C55.3861 21.1887 56.8048 19.3407 57.8501 17.5487C58.9328 15.7194 59.4741 13.9461 59.4741 12.2287C59.4741 10.6234 59.0261 9.20473 58.1301 7.97273C57.2714 6.74073 55.8341 6.12473 53.8181 6.12473C51.7648 6.12473 50.2154 6.79673 49.1701 8.14073C48.1248 9.48473 47.6021 11.1087 47.6021 13.0127H40.6581C40.7328 10.1381 41.3674 7.74873 42.5621 5.84473C43.7568 3.9034 45.3434 2.46606 47.3221 1.53273C49.3008 0.562062 51.5221 0.0767298 53.9861 0.0767298C57.9808 0.0767298 61.0794 1.17806 63.2821 3.38073C65.5221 5.54606 66.6421 8.36473 66.6421 11.8367C66.6421 14.0021 66.1381 16.1114 65.1301 18.1647C64.1594 20.2181 62.8714 22.1967 61.2661 24.1007C59.6608 26.0047 57.9248 27.7967 56.0581 29.4767C54.1914 31.1194 52.3808 32.6501 50.6261 34.0687H67.5941V39.9487H40.6021Z" fill="url(#paint0_linear_557_1335)"/>
<defs>
<linearGradient id="paint0_linear_557_1335" x1="8.56954" y1="44.8661" x2="59.0339" y2="-6.04483" gradientUnits="userSpaceOnUse">
<stop stop-color="#EA347F"/>
<stop offset="0.19" stop-color="#E23080"/>
<stop offset="0.5" stop-color="#CC2484"/>
<stop offset="0.87" stop-color="#A81189"/>
<stop offset="1" stop-color="#9A098B"/>
</linearGradient>
</defs>
</svg>
