<svg width="69" height="41" viewBox="0 0 69 41" fill="none" xmlns="http://www.w3.org/2000/svg">
<path d="M18.3214 40.6207C14.7001 40.6207 11.6014 39.7807 9.02541 38.1007C6.44941 36.3834 4.45207 34.0127 3.03341 30.9887C1.65207 27.9274 0.961406 24.3807 0.961406 20.3487C0.961406 16.3541 1.65207 12.8261 3.03341 9.76473C4.45207 6.70339 6.44941 4.33273 9.02541 2.65273C11.6014 0.935397 14.7001 0.0767298 18.3214 0.0767298C21.9427 0.0767298 25.0414 0.935397 27.6174 2.65273C30.1934 4.33273 32.1721 6.70339 33.5534 9.76473C34.9721 12.8261 35.6814 16.3541 35.6814 20.3487C35.6814 24.3807 34.9721 27.9274 33.5534 30.9887C32.1721 34.0127 30.1934 36.3834 27.6174 38.1007C25.0414 39.7807 21.9427 40.6207 18.3214 40.6207ZM18.3214 34.1807C21.2707 34.1807 23.6787 32.9487 25.5454 30.4847C27.4121 28.0207 28.3454 24.6421 28.3454 20.3487C28.3454 16.0554 27.4121 12.6767 25.5454 10.2127C23.6787 7.74873 21.2707 6.51673 18.3214 6.51673C15.3347 6.51673 12.9081 7.74873 11.0414 10.2127C9.21207 12.6767 8.29741 16.0554 8.29741 20.3487C8.29741 24.6421 9.21207 28.0207 11.0414 30.4847C12.9081 32.9487 15.3347 34.1807 18.3214 34.1807ZM54.8312 40.6207C52.2552 40.6207 49.9219 40.1727 47.8312 39.2767C45.7406 38.3434 44.0606 36.9247 42.7912 35.0207C41.5219 33.1167 40.8499 30.7274 40.7752 27.8527H47.8312C47.8686 29.7567 48.4846 31.3621 49.6792 32.6687C50.9112 33.9381 52.6286 34.5727 54.8312 34.5727C56.9219 34.5727 58.5272 33.9941 59.6472 32.8367C60.7672 31.6794 61.3272 30.2234 61.3272 28.4687C61.3272 26.4154 60.5806 24.8661 59.0872 23.8207C57.6312 22.7381 55.7459 22.1967 53.4312 22.1967H50.5192V16.3167H53.4872C55.3912 16.3167 56.9779 15.8687 58.2472 14.9727C59.5166 14.0767 60.1512 12.7514 60.1512 10.9967C60.1512 9.54073 59.6659 8.38339 58.6952 7.52473C57.7619 6.62873 56.4552 6.18073 54.7752 6.18073C52.9459 6.18073 51.5086 6.72206 50.4632 7.80473C49.4552 8.8874 48.8952 10.2127 48.7832 11.7807H41.7832C41.9326 8.1594 43.1832 5.3034 45.5352 3.21273C47.9246 1.12206 51.0046 0.0767298 54.7752 0.0767298C57.4632 0.0767298 59.7219 0.562062 61.5512 1.53273C63.4179 2.46606 64.8179 3.71673 65.7512 5.28473C66.7219 6.85273 67.2072 8.58873 67.2072 10.4927C67.2072 12.6954 66.5912 14.5621 65.3592 16.0927C64.1646 17.5861 62.6712 18.5941 60.8792 19.1167C63.0819 19.5647 64.8739 20.6474 66.2552 22.3647C67.6366 24.0447 68.3272 26.1727 68.3272 28.7487C68.3272 30.9141 67.8046 32.8927 66.7592 34.6847C65.7139 36.4767 64.1832 37.9141 62.1672 38.9967C60.1886 40.0794 57.7432 40.6207 54.8312 40.6207Z" fill="url(#paint0_linear_557_1336)"/>
<defs>
<linearGradient id="paint0_linear_557_1336" x1="8.86313" y1="44.8661" x2="59.2964" y2="-7.42676" gradientUnits="userSpaceOnUse">
<stop stop-color="#EA347F"/>
<stop offset="0.19" stop-color="#E23080"/>
<stop offset="0.5" stop-color="#CC2484"/>
<stop offset="0.87" stop-color="#A81189"/>
<stop offset="1" stop-color="#9A098B"/>
</linearGradient>
</defs>
</svg>
