<svg width="72" height="41" viewBox="0 0 72 41" fill="none" xmlns="http://www.w3.org/2000/svg">
<path d="M18.0636 40.7482C14.4423 40.7482 11.3436 39.9082 8.76759 38.2282C6.19159 36.5108 4.19426 34.1402 2.77559 31.1162C1.39426 28.0548 0.703594 24.5082 0.703594 20.4762C0.703594 16.4815 1.39426 12.9535 2.77559 9.89217C4.19426 6.83084 6.19159 4.46017 8.76759 2.78017C11.3436 1.06284 14.4423 0.204171 18.0636 0.204171C21.6849 0.204171 24.7836 1.06284 27.3596 2.78017C29.9356 4.46017 31.9143 6.83084 33.2956 9.89217C34.7143 12.9535 35.4236 16.4815 35.4236 20.4762C35.4236 24.5082 34.7143 28.0548 33.2956 31.1162C31.9143 34.1402 29.9356 36.5108 27.3596 38.2282C24.7836 39.9082 21.6849 40.7482 18.0636 40.7482ZM18.0636 34.3082C21.0129 34.3082 23.4209 33.0762 25.2876 30.6122C27.1543 28.1482 28.0876 24.7695 28.0876 20.4762C28.0876 16.1828 27.1543 12.8042 25.2876 10.3402C23.4209 7.87617 21.0129 6.64417 18.0636 6.64417C15.0769 6.64417 12.6503 7.87617 10.7836 10.3402C8.95426 12.8042 8.03959 16.1828 8.03959 20.4762C8.03959 24.7695 8.95426 28.1482 10.7836 30.6122C12.6503 33.0762 15.0769 34.3082 18.0636 34.3082ZM59.6694 40.0762V32.7962H40.3494V27.0842L58.7174 0.876169H66.8374V26.5802H71.9894V32.7962H66.8374V40.0762H59.6694ZM48.0214 26.5802H60.1174V8.77217L48.0214 26.5802Z" fill="url(#paint0_linear_557_1337)"/>
<defs>
<linearGradient id="paint0_linear_557_1337" x1="9.15673" y1="44.9935" x2="59.5234" y2="-8.64179" gradientUnits="userSpaceOnUse">
<stop stop-color="#EA347F"/>
<stop offset="0.19" stop-color="#E23080"/>
<stop offset="0.5" stop-color="#CC2484"/>
<stop offset="0.87" stop-color="#A81189"/>
<stop offset="1" stop-color="#9A098B"/>
</linearGradient>
</defs>
</svg>
