<svg width="70" height="41" viewBox="0 0 70 41" fill="none" xmlns="http://www.w3.org/2000/svg">
<path d="M18.1378 40.7482C14.5165 40.7482 11.4178 39.9082 8.84181 38.2282C6.26581 36.5108 4.26848 34.1402 2.84981 31.1162C1.46848 28.0548 0.777813 24.5082 0.777813 20.4762C0.777813 16.4815 1.46848 12.9535 2.84981 9.89217C4.26848 6.83084 6.26581 4.46017 8.84181 2.78017C11.4178 1.06284 14.5165 0.204171 18.1378 0.204171C21.7591 0.204171 24.8578 1.06284 27.4338 2.78017C30.0098 4.46017 31.9885 6.83084 33.3698 9.89217C34.7885 12.9535 35.4978 16.4815 35.4978 20.4762C35.4978 24.5082 34.7885 28.0548 33.3698 31.1162C31.9885 34.1402 30.0098 36.5108 27.4338 38.2282C24.8578 39.9082 21.7591 40.7482 18.1378 40.7482ZM18.1378 34.3082C21.0871 34.3082 23.4951 33.0762 25.3618 30.6122C27.2285 28.1482 28.1618 24.7695 28.1618 20.4762C28.1618 16.1828 27.2285 12.8042 25.3618 10.3402C23.4951 7.87617 21.0871 6.64417 18.1378 6.64417C15.1511 6.64417 12.7245 7.87617 10.8578 10.3402C9.02848 12.8042 8.11381 16.1828 8.11381 20.4762C8.11381 24.7695 9.02848 28.1482 10.8578 30.6122C12.7245 33.0762 15.1511 34.3082 18.1378 34.3082ZM55.8796 40.7482C53.005 40.7482 50.5223 40.2442 48.4316 39.2362C46.3783 38.2282 44.7543 36.8468 43.5596 35.0922C42.4023 33.3002 41.7303 31.2842 41.5436 29.0442H48.5436C48.8796 30.6495 49.701 31.9935 51.0076 33.0762C52.3143 34.1215 53.9383 34.6442 55.8796 34.6442C57.9703 34.6442 59.669 33.8788 60.9756 32.3482C62.3196 30.8175 62.9916 28.9135 62.9916 26.6362C62.9916 24.2842 62.3196 22.4175 60.9756 21.0362C59.669 19.6548 58.0076 18.9642 55.9916 18.9642C54.3116 18.9642 52.8556 19.3748 51.6236 20.1962C50.3916 21.0175 49.5143 22.0442 48.9916 23.2762H42.1036L45.4636 0.876169H67.1916V7.14817H50.8396L49.0476 16.2202C49.869 15.3242 50.989 14.5962 52.4076 14.0362C53.8263 13.4388 55.413 13.1402 57.1676 13.1402C59.9676 13.1402 62.301 13.7748 64.1676 15.0442C66.0343 16.2762 67.453 17.9188 68.4236 19.9722C69.3943 21.9882 69.8796 24.1908 69.8796 26.5802C69.8796 29.3055 69.2823 31.7322 68.0876 33.8602C66.9303 35.9882 65.2876 37.6682 63.1596 38.9002C61.069 40.1322 58.6423 40.7482 55.8796 40.7482Z" fill="url(#paint0_linear_557_1338)"/>
<defs>
<linearGradient id="paint0_linear_557_1338" x1="9.00993" y1="44.9935" x2="59.4141" y2="-7.97548" gradientUnits="userSpaceOnUse">
<stop stop-color="#EA347F"/>
<stop offset="0.19" stop-color="#E23080"/>
<stop offset="0.5" stop-color="#CC2484"/>
<stop offset="0.87" stop-color="#A81189"/>
<stop offset="1" stop-color="#9A098B"/>
</linearGradient>
</defs>
</svg>
