<svg width="71" height="41" viewBox="0 0 71 41" fill="none" xmlns="http://www.w3.org/2000/svg">
<path d="M18.255 40.7145C14.6337 40.7145 11.535 39.8745 8.959 38.1945C6.383 36.4771 4.38567 34.1065 2.967 31.0825C1.58567 28.0211 0.895 24.4745 0.895 20.4425C0.895 16.4478 1.58567 12.9198 2.967 9.85848C4.38567 6.79714 6.383 4.42648 8.959 2.74648C11.535 1.02915 14.6337 0.17048 18.255 0.17048C21.8763 0.17048 24.975 1.02915 27.551 2.74648C30.127 4.42648 32.1057 6.79714 33.487 9.85848C34.9057 12.9198 35.615 16.4478 35.615 20.4425C35.615 24.4745 34.9057 28.0211 33.487 31.0825C32.1057 34.1065 30.127 36.4771 27.551 38.1945C24.975 39.8745 21.8763 40.7145 18.255 40.7145ZM18.255 34.2745C21.2043 34.2745 23.6123 33.0425 25.479 30.5785C27.3457 28.1145 28.279 24.7358 28.279 20.4425C28.279 16.1491 27.3457 12.7705 25.479 10.3065C23.6123 7.84248 21.2043 6.61048 18.255 6.61048C15.2683 6.61048 12.8417 7.84248 10.975 10.3065C9.14567 12.7705 8.231 16.1491 8.231 20.4425C8.231 24.7358 9.14567 28.1145 10.975 30.5785C12.8417 33.0425 15.2683 34.2745 18.255 34.2745ZM56.6688 40.7145C53.7195 40.7145 51.2368 40.1731 49.2208 39.0905C47.2048 38.0078 45.5808 36.5518 44.3488 34.7225C43.1168 32.8931 42.2208 30.8585 41.6608 28.6185C41.1381 26.3785 40.8768 24.0825 40.8768 21.7305C40.8768 17.3625 41.4928 13.5731 42.7248 10.3625C43.9568 7.11448 45.7301 4.61314 48.0448 2.85848C50.3595 1.06648 53.1595 0.17048 56.4448 0.17048C59.1328 0.17048 61.4101 0.711813 63.2768 1.79448C65.1808 2.83981 66.6555 4.22115 67.7008 5.93848C68.7461 7.65581 69.3621 9.50381 69.5488 11.4825H62.8848C62.5488 9.76514 61.8208 8.43981 60.7008 7.50648C59.5808 6.57315 58.1435 6.10648 56.3888 6.10648C53.8875 6.10648 51.8715 7.26381 50.3408 9.57848C48.8101 11.8558 47.9888 15.3465 47.8768 20.0505C48.7728 18.5198 50.1168 17.2505 51.9088 16.2425C53.7008 15.2345 55.6981 14.7305 57.9008 14.7305C60.0661 14.7305 62.1008 15.2531 64.0048 16.2985C65.9088 17.3438 67.4395 18.8185 68.5968 20.7225C69.7915 22.6265 70.3888 24.8665 70.3888 27.4425C70.3888 29.7945 69.8101 31.9785 68.6528 33.9945C67.5328 36.0105 65.9275 37.6345 63.8368 38.8665C61.7835 40.0985 59.3941 40.7145 56.6688 40.7145ZM56.2768 34.5545C58.3675 34.5545 60.0848 33.9198 61.4288 32.6505C62.8101 31.3438 63.5008 29.7011 63.5008 27.7225C63.5008 25.6318 62.8101 23.9518 61.4288 22.6825C60.0475 21.4131 58.2928 20.7785 56.1648 20.7785C54.7835 20.7785 53.5328 21.0958 52.4128 21.7305C51.3301 22.3278 50.4715 23.1491 49.8368 24.1945C49.2021 25.2025 48.8848 26.3411 48.8848 27.6105C48.8848 29.6265 49.5755 31.2878 50.9568 32.5945C52.3755 33.9011 54.1488 34.5545 56.2768 34.5545Z" fill="url(#paint0_linear_571_4)"/>
<defs>
<linearGradient id="paint0_linear_571_4" x1="0.67991" y1="44.5719" x2="48.002" y2="-22.1599" gradientUnits="userSpaceOnUse">
<stop stop-color="#EA347F"/>
<stop offset="0.19" stop-color="#E23080"/>
<stop offset="0.5" stop-color="#CC2484"/>
<stop offset="0.87" stop-color="#A81189"/>
<stop offset="1" stop-color="#9A098B"/>
</linearGradient>
</defs>
</svg>
