<?xml version="1.0" encoding="utf-8"?>
<svg version="1.1" id="Layer_1" xmlns="http://www.w3.org/2000/svg" xmlns:xlink="http://www.w3.org/1999/xlink" x="0px" y="0px"
	 viewBox="0 0 200 200" style="enable-background:new 0 0 200 200;" xml:space="preserve">

<style type="text/css">
	.st0 {
	    fill: none;
	    stroke: white;
	    stroke-width: 18;
	    stroke-linecap: round;
	    stroke-linejoin: round;
	    stroke-miterlimit: 10;
	}
</style>

<path id="center_line_00000031927504481363212250000006754161564346978696_" class="st0 e" d="M101,100.16l72.77-0.16
	c0,0,1.86-7.37,1-15.2c-1.39-12.79-8.79-26.2-22.98-38.58c-14.2-12.38-31.41-18.91-50.79-18.91c-10.38-0.05-20.22,1.79-29.32,5.43
	c-9.03,3.62-17.24,8.99-24.44,15.95c-7.2,6.67-12.88,14.67-16.71,23.52c-3.82,8.85-5.7,18.36-5.52,27.93
	c-0.1,9.71,1.73,19.11,5.47,27.83c3.76,8.76,9.4,16.7,16.76,23.5c7.1,6.98,15.38,12.35,24.5,15.94c9.16,3.61,19.05,5.38,29.26,5.28
	c17.53,0.25,34.59-5.47,48.1-16.14"/>
</svg>
