<svg viewBox="0 0 48 48" fill="none" xmlns="http://www.w3.org/2000/svg">
    <path d="M24 44C27.9556 44 31.8224 42.827 35.1114 40.6294C38.4004 38.4318 40.9638 35.3082 42.4776 31.6536C43.9913 27.9992 44.3874 23.9778 43.6157 20.0982C42.844 16.2186 40.9392 12.6549 38.1421 9.85787C35.3451 7.06082 31.7814 5.156 27.9018 4.3843C24.0222 3.6126 20.0009 4.00866 16.3463 5.52242C12.6918 7.03616 9.56824 9.59961 7.37061 12.8886C5.17298 16.1776 4 20.0443 4 24C4.0153 29.2996 6.12735 34.3778 9.87477 38.1252C13.6222 41.8727 18.7004 43.9847 24 44Z" stroke="#9A098B" stroke-width="3" stroke-linecap="round" stroke-linejoin="round"/>
    <path d="M16 24H32" stroke="#9A098B" stroke-width="3" stroke-linecap="round" stroke-linejoin="round" class="h"/>
    <path d="M24 32V16" stroke="#9A098B" stroke-width="3" stroke-linecap="round" stroke-linejoin="round" class="v"/>
</svg>
