<svg  viewBox="0 0 20 20" fill="none" xmlns="http://www.w3.org/2000/svg">
<path d="M12.9833 10.0009C12.9833 10.591 12.8083 11.1678 12.4805 11.6584C12.1527 12.149 11.6867 12.5314 11.1416 12.7572C10.5965 12.983 9.99663 13.042 9.41792 12.9269C8.83921 12.8118 8.30763 12.5277 7.8904 12.1104C7.47317 11.6932 7.18904 11.1616 7.07393 10.5829C6.95881 10.0042 7.01789 9.40437 7.2437 8.85924C7.4695 8.31411 7.85188 7.84818 8.34248 7.52036C8.83309 7.19255 9.40989 7.01758 9.99994 7.01758C10.3918 7.01714 10.78 7.09401 11.1421 7.24378C11.5043 7.39355 11.8333 7.61328 12.1104 7.8904C12.3876 8.16752 12.6073 8.49657 12.7571 8.85872C12.9068 9.22087 12.9837 9.60901 12.9833 10.0009V10.0009Z" stroke="#776E76" stroke-width="1.5" stroke-linecap="round" stroke-linejoin="round"/>
<path d="M9.99983 16.8913C12.9415 16.8913 15.6832 15.1579 17.5915 12.1579C17.9603 11.4969 18.154 10.7524 18.154 9.99544C18.154 9.23844 17.9603 8.49401 17.5915 7.83294C15.679 4.83294 12.9415 3.09961 9.99983 3.09961C7.05816 3.09961 4.3165 4.83294 2.40816 7.83294C2.03933 8.49401 1.8457 9.23844 1.8457 9.99544C1.8457 10.7524 2.03933 11.4969 2.40816 12.1579C4.3165 15.1579 7.05816 16.8913 9.99983 16.8913Z" stroke="#776E76" stroke-width="1.5" stroke-linecap="round" stroke-linejoin="round"/>
</svg>
