<svg width="135" height="22" viewBox="0 0 135 22" fill="none" xmlns="http://www.w3.org/2000/svg">
<path d="M7.40673 21.9985C9.11465 22.0264 10.7751 21.4102 12.0843 20.2628C12.2194 20.1569 12.3318 20.0227 12.4145 19.8689C12.4972 19.715 12.5484 19.5448 12.5648 19.3692C12.5843 19.1894 12.5684 19.0074 12.518 18.8343C12.4677 18.6612 12.3839 18.5007 12.272 18.3628C12.1654 18.228 12.0344 18.1166 11.8864 18.0351C11.7385 17.9536 11.5765 17.9036 11.41 17.8879C11.2434 17.8723 11.0755 17.8913 10.916 17.9439C10.7566 17.9965 10.6086 18.0816 10.4808 18.1944C9.61197 18.9299 8.52433 19.3238 7.40673 19.3079C6.07597 19.3079 4.91954 18.8319 3.98401 17.8269C3.02055 16.8526 2.56676 15.6444 2.56676 14.2469C2.55456 13.577 2.67406 12.9116 2.91785 12.2919C3.16165 11.6723 3.52453 11.1116 3.98401 10.6447C4.42826 10.1674 4.96092 9.78984 5.54943 9.53519C6.13794 9.28055 6.76992 9.15414 7.40673 9.16369C8.4714 9.16436 9.50627 9.53149 10.3516 10.2084C11.197 10.8854 11.8059 11.8345 12.0843 12.9093H7.40673C7.2347 12.9035 7.06331 12.934 6.90274 12.9988C6.74218 13.0637 6.59572 13.1616 6.47207 13.2869C6.34842 13.4121 6.2501 13.5621 6.18296 13.7278C6.11581 13.8936 6.08121 14.0718 6.08121 14.2518C6.08121 14.4318 6.11581 14.61 6.18296 14.7758C6.2501 14.9416 6.34842 15.0915 6.47207 15.2168C6.59572 15.342 6.74218 15.4399 6.90274 15.5048C7.06331 15.5697 7.2347 15.6001 7.40673 15.5943H13.5535C13.8907 15.5838 14.2113 15.4391 14.45 15.1898C14.6887 14.9404 14.8273 14.6052 14.8377 14.2525C14.8377 12.0992 14.0885 10.2814 12.6459 8.77257C11.2034 7.26374 9.46541 6.4787 7.40673 6.4787C5.34804 6.4787 3.61007 7.26235 2.1662 8.77257C1.46606 9.48245 0.912651 10.3351 0.54023 11.2777C0.167809 12.2202 -0.0157025 13.2328 0.00105212 14.2525C-0.01549 15.2724 0.168113 16.2851 0.540516 17.2279C0.912919 18.1707 1.46621 19.0235 2.1662 19.7338C2.84514 20.4662 3.66054 21.045 4.56194 21.4346C5.46334 21.8241 6.43157 22.016 7.40673 21.9985Z" fill="#9A098B"/>
<path d="M32.7071 7.40153C32.5682 7.20136 32.3858 7.03866 32.1748 6.92689C31.9807 6.83832 31.7717 6.791 31.56 6.7877C31.3265 6.79741 31.0985 6.86466 30.8946 6.98396C30.6923 7.09261 30.5317 7.27043 30.4395 7.48783L25.8417 17.9717L21.1854 7.48644C21.0856 7.27487 20.9276 7.09938 20.7316 6.98257C20.5444 6.86725 20.3337 6.79999 20.1168 6.78631C19.9218 6.78603 19.7294 6.83371 19.5552 6.9255C19.0455 7.20388 18.806 7.56856 18.806 8.07243C18.797 8.24694 18.8339 8.42069 18.9125 8.57491L24.5815 21.0728C24.7398 21.4097 24.9009 21.6602 25.1138 21.8008C25.3372 21.9468 25.5989 22.0155 25.8617 21.9971C26.394 21.9971 26.8238 21.6881 27.0913 21.0728L32.7577 8.57491C32.8394 8.41028 32.8849 8.2286 32.8908 8.0432C32.8835 7.81632 32.8202 7.59526 32.7071 7.40153Z" fill="#950A7E"/>
<path d="M45.0632 21.9984C46.7712 22.0266 48.4317 21.4104 49.7408 20.2627C49.8761 20.1571 49.9887 20.023 50.0715 19.8691C50.1542 19.7152 50.2052 19.5449 50.2213 19.3691C50.2411 19.1893 50.2254 19.0072 50.175 18.8341C50.1246 18.6609 50.0407 18.5005 49.9285 18.3628C49.8256 18.2251 49.696 18.1117 49.5484 18.0299C49.4007 17.9481 49.2382 17.8998 49.0715 17.8881C48.9043 17.8679 48.735 17.8847 48.5745 17.9374C48.414 17.9902 48.2659 18.0777 48.1399 18.1944C47.2712 18.93 46.1835 19.324 45.0659 19.3079C43.7285 19.3079 42.5787 18.8319 41.6432 17.8269C40.681 16.8526 40.2272 15.6444 40.2272 14.2469C40.2232 13.5798 40.3454 12.9184 40.5868 12.301C40.8282 11.6835 41.1841 11.122 41.6338 10.649C42.0836 10.176 42.6184 9.80074 43.2074 9.54486C43.7965 9.28897 44.4281 9.15753 45.0659 9.15809C46.1307 9.15829 47.1658 9.52524 48.0112 10.2023C48.8567 10.8793 49.4655 11.8286 49.7435 12.9037H45.0632C44.8912 12.8979 44.7198 12.9284 44.5592 12.9932C44.3987 13.0581 44.2522 13.156 44.1286 13.2813C44.0049 13.4065 43.9066 13.5565 43.8395 13.7222C43.7723 13.888 43.7377 14.0662 43.7377 14.2462C43.7377 14.4262 43.7723 14.6044 43.8395 14.7702C43.9066 14.936 44.0049 15.0859 44.1286 15.2112C44.2522 15.3364 44.3987 15.4343 44.5592 15.4992C44.7198 15.5641 44.8912 15.5945 45.0632 15.5887H51.2127C51.5494 15.5775 51.8694 15.4325 52.1075 15.1833C52.3456 14.934 52.4839 14.5991 52.4942 14.2469C52.4942 12.0936 51.7463 10.2758 50.3024 8.76697C48.8586 7.25814 47.1219 6.4731 45.0632 6.4731C43.0045 6.4731 41.2679 7.25675 39.8227 8.76697C39.1226 9.47785 38.5696 10.3315 38.1978 11.2751C37.8261 12.2187 37.6435 13.2321 37.6615 14.2525C37.645 15.2724 37.8286 16.2851 38.201 17.2278C38.5734 18.1706 39.1267 19.0235 39.8267 19.7338C40.5053 20.4654 41.3201 21.0439 42.2207 21.4334C43.1214 21.8229 44.0888 22.0152 45.0632 21.9984Z" fill="#96176F"/>
<path d="M71.4216 21.9985C71.6007 22.0011 71.7785 21.9654 71.9439 21.8936C72.1094 21.8218 72.259 21.7154 72.3838 21.5809C72.5089 21.4491 72.6067 21.2917 72.6711 21.1185C72.7354 20.9454 72.7649 20.7602 72.7577 20.5745V13.3867C72.76 12.4498 72.5852 11.5217 72.2435 10.6556C71.9018 9.78957 71.3998 9.00269 70.7664 8.34019C70.133 7.6777 69.3807 7.15264 68.5527 6.79521C67.7247 6.43777 66.8373 6.25499 65.9416 6.25738C65.0408 6.24151 64.1465 6.41938 63.3141 6.77997C62.4818 7.14056 61.7291 7.67617 61.1029 8.35359C60.4573 9.00486 59.9462 9.78759 59.601 10.6535C59.2559 11.5194 59.0841 12.4501 59.0961 13.3881V20.5731C59.0936 20.7605 59.1277 20.9464 59.1964 21.1194C59.265 21.2925 59.3668 21.449 59.4953 21.5795C59.6171 21.7075 59.7624 21.8084 59.9226 21.8759C60.0827 21.9433 60.2543 21.976 60.4269 21.972C60.6034 21.979 60.7795 21.9479 60.944 21.8804C61.1085 21.8129 61.2579 21.7107 61.3828 21.58C61.5078 21.4493 61.6055 21.293 61.67 21.121C61.7345 20.9489 61.7644 20.7648 61.7576 20.5801V13.3867C61.755 12.8181 61.8625 12.2548 62.0739 11.7308C62.2852 11.2069 62.5959 10.7332 62.9873 10.3385C63.3712 9.93044 63.8288 9.60641 64.3336 9.38522C64.8384 9.16404 65.3803 9.05013 65.9276 9.05013C66.4749 9.05013 67.0167 9.16404 67.5215 9.38522C68.0263 9.60641 68.484 9.93044 68.8679 10.3385C69.2548 10.735 69.5605 11.2097 69.7664 11.7338C69.9723 12.2578 70.0741 12.8202 70.0656 13.3867V20.594C70.0739 20.9611 70.2166 21.3108 70.4642 21.571C70.7118 21.8313 71.0455 21.9823 71.3963 21.9929L71.4216 21.9985Z" fill="#AC1C70"/>
<path d="M87.1245 19.2021C86.3822 19.1956 85.6721 18.8841 85.1474 18.335C84.6226 17.7859 84.3252 17.043 84.3193 16.2666V9.6954H86.6973C86.856 9.69827 87.0136 9.66756 87.1607 9.60513C87.3077 9.54271 87.4412 9.44984 87.553 9.33211C87.6648 9.21423 87.7531 9.07428 87.8127 8.92039C87.8724 8.7665 87.9022 8.60175 87.9004 8.43572C87.9016 8.27085 87.8715 8.10737 87.8117 7.9548C87.752 7.80222 87.6638 7.66361 87.5523 7.54702C87.4409 7.43044 87.3083 7.33821 87.1625 7.27572C87.0166 7.21322 86.8603 7.18171 86.7027 7.183H84.3193V3.23555C84.3213 3.05302 84.2869 2.87205 84.2181 2.70425C84.1494 2.53646 84.0478 2.38556 83.9201 2.26122C83.8011 2.12763 83.6568 2.02148 83.4964 1.94958C83.336 1.87767 83.163 1.84159 82.9885 1.84365C82.8094 1.8407 82.6315 1.87623 82.466 1.94806C82.3005 2.01988 82.1509 2.12647 82.0264 2.26122C81.9015 2.38664 81.8035 2.53834 81.7388 2.70629C81.6742 2.87424 81.6442 3.05463 81.6511 3.23555V16.2666C81.6511 17.7868 82.2285 19.2447 83.2562 20.3196C84.2839 21.3946 85.6778 21.9985 87.1312 21.9985C87.3041 22.005 87.4764 21.9735 87.6369 21.9058C87.7973 21.8382 87.9424 21.736 88.0627 21.6059C88.1912 21.4754 88.2928 21.3188 88.3615 21.1458C88.4301 20.9728 88.4643 20.7869 88.4619 20.5996C88.4522 20.2337 88.3089 19.8855 88.0614 19.6266C87.8139 19.3678 87.481 19.2179 87.1312 19.2077L87.1245 19.2021Z" fill="#CC226C"/>
<path d="M101.221 2.78882C101.394 2.79565 101.566 2.76449 101.727 2.69736C101.887 2.63022 102.032 2.52861 102.153 2.39909C102.281 2.26849 102.383 2.1119 102.451 1.93889C102.52 1.76587 102.554 1.58004 102.552 1.39274C102.553 1.21029 102.519 1.0295 102.45 0.861794C102.381 0.69409 102.28 0.543113 102.153 0.418402C102.034 0.28488 101.889 0.178781 101.729 0.106881C101.569 0.0349818 101.396 -0.00113773 101.221 0.000830038C100.5 -0.0122714 99.7833 0.129848 99.1164 0.41837C98.4496 0.706892 97.8466 1.13566 97.3447 1.67808C96.8294 2.20521 96.4221 2.83654 96.1476 3.5336C95.873 4.23067 95.737 4.97889 95.7478 5.7327V20.6011C95.7411 20.7857 95.7709 20.9699 95.8354 21.1419C95.8999 21.314 95.9977 21.4703 96.1226 21.6009C96.2476 21.7316 96.397 21.8339 96.5615 21.9013C96.726 21.9688 96.902 22 97.0786 21.993C97.2515 21.9997 97.4238 21.9682 97.5844 21.9006C97.7449 21.833 97.8899 21.7307 98.0101 21.6004C98.1386 21.4702 98.2403 21.3139 98.3089 21.1411C98.3776 20.9683 98.4117 20.7826 98.4093 20.5955V9.66763H101.082C101.239 9.6693 101.396 9.63804 101.542 9.57568C101.688 9.51332 101.82 9.42111 101.932 9.30445C102.043 9.18779 102.132 9.04902 102.191 8.89628C102.251 8.74353 102.281 8.57988 102.279 8.41491C102.281 8.24988 102.251 8.08615 102.192 7.93332C102.132 7.78049 102.044 7.64165 101.932 7.52495C101.821 7.40825 101.688 7.31605 101.542 7.25375C101.396 7.19146 101.239 7.16033 101.082 7.16219H98.4147V5.72574C98.4206 4.94898 98.7181 4.20575 99.2431 3.65635C99.7682 3.10694 100.479 2.79537 101.221 2.78882Z" fill="#D92A6E"/>
<path d="M108.816 0.55054C108.691 0.682416 108.593 0.839869 108.529 1.01304C108.465 1.1862 108.436 1.37135 108.443 1.55689V16.8261C108.422 17.7487 108.595 18.665 108.95 19.5097C109.245 20.2535 109.736 20.8938 110.366 21.3554C110.98 21.7922 111.708 22.017 112.45 21.9984H112.503C113.036 21.9984 113.466 21.8857 113.813 21.6059C113.97 21.4942 114.098 21.3441 114.186 21.1687C114.275 20.9933 114.321 20.7979 114.321 20.5996C114.32 20.2322 114.198 19.8766 113.974 19.5932C113.867 19.4672 113.735 19.3669 113.588 19.2994C113.44 19.2318 113.281 19.1987 113.12 19.2021H112.454C112.052 19.2021 111.731 18.9785 111.491 18.5312C111.225 18.083 111.117 17.5235 111.117 16.8261V1.55828C111.119 1.18453 110.985 0.823906 110.742 0.55054C110.48 0.297222 110.136 0.157405 109.779 0.159414C109.602 0.153316 109.425 0.184821 109.259 0.252036C109.094 0.31925 108.943 0.420786 108.816 0.55054Z" fill="#EA347F"/>
<path d="M127.621 6.5622C126.161 6.5622 124.735 7.01486 123.521 7.86294C122.308 8.71102 121.362 9.91642 120.804 11.3267C120.245 12.737 120.099 14.2889 120.384 15.7861C120.668 17.2832 121.371 18.6585 122.403 19.7379C123.435 20.8173 124.75 21.5523 126.181 21.8502C127.613 22.148 129.096 21.9951 130.445 21.4109C131.793 20.8268 132.946 19.8375 133.756 18.5683C134.567 17.299 135 15.8068 135 14.2803C135 12.2335 134.222 10.2705 132.838 8.82319C131.455 7.37584 129.578 6.56257 127.621 6.5622ZM127.621 19.1687C126.697 19.1687 125.793 18.882 125.024 18.3449C124.256 17.8077 123.657 17.0443 123.303 16.151C122.949 15.2578 122.857 14.2749 123.037 13.3266C123.217 12.3784 123.663 11.5074 124.316 10.8237C124.97 10.1401 125.803 9.67449 126.709 9.48588C127.616 9.29726 128.555 9.39406 129.409 9.76405C130.263 10.134 130.993 10.7606 131.507 11.5645C132.02 12.3684 132.295 13.3135 132.295 14.2803C132.295 14.9223 132.174 15.5579 131.939 16.151C131.704 16.7441 131.36 17.283 130.926 17.7369C130.492 18.1909 129.976 18.5509 129.409 18.7966C128.842 19.0423 128.235 19.1687 127.621 19.1687Z" fill="url(#paint0_linear_13_2237)"/>
<path d="M126.89 8.73078C125.695 8.73051 124.527 9.10098 123.533 9.79533C122.539 10.4897 121.764 11.4767 121.306 12.6317C120.849 13.7866 120.729 15.0575 120.962 16.2837C121.195 17.5099 121.77 18.6362 122.615 19.5203C123.461 20.4044 124.537 21.0065 125.71 21.2505C126.882 21.4945 128.097 21.3694 129.201 20.8911C130.306 20.4127 131.249 19.6026 131.913 18.5631C132.578 17.5237 132.932 16.3016 132.932 15.0514C132.932 13.3753 132.295 11.7679 131.163 10.5826C130.03 9.39724 128.493 8.73115 126.89 8.73078ZM127.626 19.1701C126.702 19.1701 125.798 18.8834 125.03 18.3463C124.261 17.8091 123.662 17.0456 123.308 16.1524C122.955 15.2592 122.862 14.2763 123.042 13.328C123.223 12.3798 123.668 11.5088 124.321 10.8251C124.975 10.1415 125.808 9.67588 126.714 9.48726C127.621 9.29864 128.561 9.39545 129.415 9.76544C130.269 10.1354 130.999 10.762 131.512 11.5659C132.026 12.3698 132.3 13.3149 132.3 14.2817C132.3 14.924 132.179 15.56 131.943 16.1533C131.708 16.7466 131.363 17.2855 130.929 17.7394C130.494 18.1932 129.978 18.5531 129.411 18.7983C128.843 19.0436 128.235 19.1694 127.621 19.1687L127.626 19.1701Z" fill="url(#paint1_linear_13_2237)"/>
<defs>
<linearGradient id="paint0_linear_13_2237" x1="19.8179" y1="18.7784" x2="24.757" y2="-11.5302" gradientUnits="userSpaceOnUse">
<stop stop-color="#EA347F"/>
<stop offset="0.19" stop-color="#E23080"/>
<stop offset="0.5" stop-color="#CC2484"/>
<stop offset="0.87" stop-color="#A81189"/>
<stop offset="1" stop-color="#9A098B"/>
</linearGradient>
<linearGradient id="paint1_linear_13_2237" x1="123.252" y1="20.0998" x2="126.378" y2="16.1343" gradientUnits="userSpaceOnUse">
<stop stop-color="#9A098B"/>
<stop offset="0.13" stop-color="#A81189"/>
<stop offset="0.5" stop-color="#CC2484"/>
<stop offset="0.81" stop-color="#E23080"/>
<stop offset="1" stop-color="#EA347F"/>
</linearGradient>
</defs>
</svg>
