<svg width="155" height="22" viewBox="0 0 155 22" fill="none" xmlns="http://www.w3.org/2000/svg">
<path d="M8.95557 1.09375V21H7.2876V1.09375H8.95557ZM15.7778 1.09375V2.54297H0.479004V1.09375H15.7778ZM24.2817 15.7363L28.6021 1.09375H29.9556L28.8618 5.44141L24.2544 21H22.9556L24.2817 15.7363ZM19.2642 1.09375L22.9009 15.5996L23.9946 21H22.6411L17.5415 1.09375H19.2642ZM35.7798 15.5996L39.3618 1.09375H41.0845L35.9985 21H34.645L35.7798 15.5996ZM30.106 1.09375L34.3716 15.7363L35.6841 21H34.3853L29.8735 5.44141L28.7661 1.09375H30.106ZM59.0356 9.98047V12.1133C59.0356 13.5078 58.8534 14.7702 58.4888 15.9004C58.1333 17.0215 57.6138 17.9831 56.9302 18.7852C56.2557 19.5872 55.4445 20.2025 54.4966 20.6309C53.5487 21.0592 52.4823 21.2734 51.2974 21.2734C50.1398 21.2734 49.0825 21.0592 48.1255 20.6309C47.1776 20.2025 46.3618 19.5872 45.6782 18.7852C44.9946 17.9831 44.466 17.0215 44.0923 15.9004C43.7186 14.7702 43.5317 13.5078 43.5317 12.1133V9.98047C43.5317 8.58594 43.714 7.32812 44.0786 6.20703C44.4523 5.07682 44.981 4.11068 45.6646 3.30859C46.3481 2.50651 47.1639 1.89128 48.1118 1.46289C49.0597 1.03451 50.1125 0.820312 51.27 0.820312C52.4549 0.820312 53.5213 1.03451 54.4692 1.46289C55.4172 1.89128 56.2329 2.50651 56.9165 3.30859C57.6001 4.11068 58.1242 5.07682 58.4888 6.20703C58.8534 7.32812 59.0356 8.58594 59.0356 9.98047ZM57.3677 12.1133V9.95312C57.3677 8.77734 57.231 7.72005 56.9575 6.78125C56.6932 5.84245 56.2967 5.04036 55.7681 4.375C55.2485 3.70964 54.6105 3.19922 53.854 2.84375C53.0975 2.48828 52.2362 2.31055 51.27 2.31055C50.3312 2.31055 49.4881 2.48828 48.7407 2.84375C47.9933 3.19922 47.3553 3.70964 46.8267 4.375C46.3071 5.04036 45.9061 5.84245 45.6235 6.78125C45.3501 7.72005 45.2134 8.77734 45.2134 9.95312V12.1133C45.2134 13.2982 45.3501 14.3646 45.6235 15.3125C45.9061 16.2513 46.3117 17.0579 46.8403 17.7324C47.369 18.3978 48.007 18.9082 48.7544 19.2637C49.5109 19.6191 50.3586 19.7969 51.2974 19.7969C52.2726 19.7969 53.134 19.6191 53.8813 19.2637C54.6287 18.9082 55.2622 18.3978 55.7817 17.7324C56.3013 17.0579 56.6932 16.2513 56.9575 15.3125C57.231 14.3646 57.3677 13.2982 57.3677 12.1133ZM71.436 1.09375V21H67.3481V1.09375H71.436ZM77.561 1.09375V4.30664H61.3188V1.09375H77.561ZM79.8989 1.09375H87.3228C88.8449 1.09375 90.1528 1.32161 91.2466 1.77734C92.3494 2.23307 93.1971 2.90755 93.7896 3.80078C94.382 4.69401 94.6782 5.79232 94.6782 7.0957C94.6782 8.16211 94.4959 9.07812 94.1313 9.84375C93.7759 10.6003 93.27 11.2337 92.6138 11.7441C91.9666 12.2454 91.2056 12.6465 90.3306 12.9473L89.0317 13.6309H82.5786L82.5513 10.4316H87.3501C88.0701 10.4316 88.6672 10.304 89.1411 10.0488C89.6151 9.79362 89.9705 9.43815 90.2075 8.98242C90.4536 8.52669 90.5767 7.99805 90.5767 7.39648C90.5767 6.75846 90.4582 6.20703 90.2212 5.74219C89.9842 5.27734 89.6242 4.92188 89.1411 4.67578C88.658 4.42969 88.0519 4.30664 87.3228 4.30664H84.0005V21H79.8989V1.09375ZM91.0278 21L86.4888 12.127L90.8228 12.0996L95.4165 20.8086V21H91.0278ZM102.198 1.09375V21H98.1099V1.09375H102.198ZM113.833 12.2637H108.719L108.692 9.44727H112.985C113.741 9.44727 114.361 9.35156 114.844 9.16016C115.327 8.95964 115.687 8.67253 115.924 8.29883C116.17 7.91602 116.293 7.45117 116.293 6.9043C116.293 6.28451 116.175 5.7832 115.938 5.40039C115.71 5.01758 115.35 4.73958 114.858 4.56641C114.375 4.39323 113.75 4.30664 112.985 4.30664H110.141V21H106.04V1.09375H112.985C114.142 1.09375 115.177 1.20312 116.088 1.42188C117.009 1.64062 117.788 1.97331 118.426 2.41992C119.064 2.86654 119.552 3.43164 119.889 4.11523C120.226 4.78971 120.395 5.5918 120.395 6.52148C120.395 7.3418 120.208 8.09831 119.834 8.79102C119.47 9.48372 118.891 10.0488 118.098 10.4863C117.314 10.9238 116.289 11.1654 115.022 11.2109L113.833 12.2637ZM113.655 21H107.598L109.198 17.8008H113.655C114.375 17.8008 114.963 17.6868 115.418 17.459C115.874 17.222 116.211 16.903 116.43 16.502C116.649 16.1009 116.758 15.6406 116.758 15.1211C116.758 14.5378 116.658 14.0319 116.458 13.6035C116.266 13.1751 115.956 12.847 115.528 12.6191C115.099 12.3822 114.534 12.2637 113.833 12.2637H109.881L109.909 9.44727H114.831L115.774 10.5547C116.986 10.5365 117.961 10.7507 118.7 11.1973C119.447 11.6348 119.989 12.2044 120.327 12.9062C120.673 13.6081 120.846 14.36 120.846 15.1621C120.846 16.4382 120.568 17.5137 120.012 18.3887C119.456 19.2546 118.64 19.9062 117.565 20.3438C116.499 20.7812 115.195 21 113.655 21ZM137.28 17.8008V21H126.684V17.8008H137.28ZM128.024 1.09375V21H123.922V1.09375H128.024ZM135.899 9.20117V12.3184H126.684V9.20117H135.899ZM137.266 1.09375V4.30664H126.684V1.09375H137.266ZM150.036 15.791C150.036 15.4355 149.981 15.1165 149.872 14.834C149.771 14.5423 149.58 14.278 149.297 14.041C149.015 13.7949 148.618 13.5534 148.108 13.3164C147.597 13.0794 146.937 12.8333 146.125 12.5781C145.223 12.2865 144.366 11.9583 143.555 11.5938C142.753 11.2292 142.042 10.8053 141.422 10.3223C140.812 9.83008 140.329 9.26042 139.973 8.61328C139.627 7.96615 139.454 7.21419 139.454 6.35742C139.454 5.52799 139.636 4.77604 140 4.10156C140.365 3.41797 140.875 2.83464 141.532 2.35156C142.188 1.85938 142.963 1.48112 143.856 1.2168C144.758 0.952474 145.747 0.820312 146.823 0.820312C148.29 0.820312 149.571 1.08464 150.665 1.61328C151.758 2.14193 152.606 2.86654 153.208 3.78711C153.818 4.70768 154.124 5.76042 154.124 6.94531H150.049C150.049 6.36198 149.926 5.85156 149.68 5.41406C149.443 4.96745 149.079 4.61654 148.586 4.36133C148.103 4.10612 147.493 3.97852 146.754 3.97852C146.043 3.97852 145.451 4.08789 144.977 4.30664C144.503 4.51628 144.148 4.80339 143.911 5.16797C143.674 5.52344 143.555 5.92448 143.555 6.37109C143.555 6.70833 143.637 7.01367 143.801 7.28711C143.974 7.56055 144.23 7.81576 144.567 8.05273C144.904 8.28971 145.319 8.51302 145.811 8.72266C146.303 8.93229 146.873 9.13737 147.52 9.33789C148.605 9.66602 149.557 10.0352 150.377 10.4453C151.207 10.8555 151.9 11.3158 152.456 11.8262C153.012 12.3366 153.431 12.9154 153.713 13.5625C153.996 14.2096 154.137 14.9434 154.137 15.7637C154.137 16.6296 153.969 17.4043 153.631 18.0879C153.294 18.7715 152.806 19.3503 152.168 19.8242C151.53 20.2982 150.769 20.6582 149.885 20.9043C149.001 21.1504 148.012 21.2734 146.918 21.2734C145.934 21.2734 144.963 21.1458 144.006 20.8906C143.049 20.6263 142.179 20.2298 141.395 19.7012C140.62 19.1725 140 18.498 139.536 17.6777C139.071 16.8574 138.838 15.8867 138.838 14.7656H142.954C142.954 15.3854 143.049 15.9095 143.241 16.3379C143.432 16.7663 143.701 17.1126 144.047 17.377C144.403 17.6413 144.822 17.8327 145.305 17.9512C145.797 18.0697 146.335 18.1289 146.918 18.1289C147.629 18.1289 148.213 18.0286 148.668 17.8281C149.133 17.6276 149.475 17.3496 149.694 16.9941C149.922 16.6387 150.036 16.2376 150.036 15.791Z" fill="#D5D5D5" fill-opacity="0.5"/>
</svg>
