<svg width="80" height="80" viewBox="0 0 80 80" fill="none" xmlns="http://www.w3.org/2000/svg">
<g clip-path="url(#clip0_267_184)">
<path d="M40 0C50.6087 0 60.7828 4.21427 68.2843 11.7157C75.7857 19.2172 80 29.3913 80 40C80 50.6087 75.7857 60.7828 68.2843 68.2843C60.7828 75.7857 50.6087 80 40 80C29.3913 80 19.2172 75.7857 11.7157 68.2843C4.21427 60.7828 0 50.6087 0 40C0 29.3913 4.21427 19.2172 11.7157 11.7157C19.2172 4.21427 29.3913 0 40 0ZM7.5 40C7.5 48.6195 10.9241 56.886 17.019 62.981C23.114 69.0759 31.3805 72.5 40 72.5C48.6195 72.5 56.886 69.0759 62.981 62.981C69.0759 56.886 72.5 48.6195 72.5 40C72.5 31.3805 69.0759 23.114 62.981 17.019C56.886 10.9241 48.6195 7.5 40 7.5C31.3805 7.5 23.114 10.9241 17.019 17.019C10.9241 23.114 7.5 31.3805 7.5 40ZM31.895 26.135L53.215 38.93C53.3992 39.0413 53.5516 39.1982 53.6574 39.3857C53.7632 39.5732 53.8188 39.7848 53.8188 40C53.8188 40.2152 53.7632 40.4268 53.6574 40.6143C53.5516 40.8018 53.3992 40.9587 53.215 41.07L31.895 53.865C31.7054 53.9792 31.4889 54.041 31.2676 54.0441C31.0463 54.0473 30.8281 53.9916 30.6354 53.8827C30.4427 53.7739 30.2823 53.6159 30.1707 53.4248C30.059 53.2337 30.0001 53.0163 30 52.795V27.21C29.9992 26.9882 30.0575 26.7703 30.1688 26.5785C30.28 26.3867 30.4403 26.2279 30.6332 26.1185C30.8261 26.0091 31.0446 25.9529 31.2663 25.9558C31.4881 25.9587 31.7051 26.0206 31.895 26.135Z" fill="white"/>
</g>
<defs>
<clipPath id="clip0_267_184">
<rect width="80" height="80" fill="white"/>
</clipPath>
</defs>
</svg>
